<svg width="39" height="40" viewBox="0 0 39 40" fill="none" xmlns="http://www.w3.org/2000/svg">
<path d="M7.61301 16.9113C7.54035 16.3005 7.32366 15.7333 6.99697 15.2453L36.2628 5.47386L34.7266 0.872461C34.5033 0.203791 33.78 -0.157072 33.1117 0.065962L1.27693 10.6951C0.608695 10.9181 0.247111 11.6413 0.470434 12.3099L1.22373 14.5658C0.471731 15.264 0 16.2601 0 17.3649C0 18.7957 0.790929 20.0445 1.95815 20.6992V38.7236C1.95815 39.4287 2.53008 39.9999 3.23465 39.9999H36.7969C37.5012 39.9999 38.0731 39.4286 38.0731 38.7236V16.9113H7.61301ZM26.2662 3.85293L30.1408 2.55928L29.2084 6.32794L25.3338 7.62159L26.2662 3.85293ZM16.6933 7.04909L20.5682 5.75543L19.6358 9.52395L15.7612 10.8177L16.6933 7.04909ZM3.82028 19.3114C2.74735 19.3114 1.87424 18.4383 1.87424 17.365C1.87424 16.2918 2.74735 15.4187 3.82028 15.4187C4.89349 15.4187 5.7666 16.2918 5.7666 17.365C5.7666 18.4383 4.89349 19.3114 3.82028 19.3114ZM7.12081 10.2452L10.9957 8.95158L10.0634 12.7202L6.18845 14.014L7.12081 10.2452ZM10.9272 21.2211H6.84227L8.92008 17.9417H13.0051L10.9272 21.2211ZM19.0121 17.9417H23.0971L21.0193 21.2211H16.9343L19.0121 17.9417ZM18.0094 33.79V25.1397L24.8984 29.4648L18.0094 33.79ZM31.1114 21.2211H27.0264L29.1042 17.9417H33.1892L31.1114 21.2211Z" fill="#EEF1F6"/>
</svg>
