<svg width="19" height="19" viewBox="0 0 19 19" fill="none" xmlns="http://www.w3.org/2000/svg">
<g clip-path="url(#clip0_2_84)">
<path d="M7.10363 6.24268C6.6073 7.19269 6.10709 8.15821 5.61076 9.10823C6.8322 8.7321 7.94895 8.12719 8.89897 7.32841C9.37979 7.68902 9.71326 8.18923 10.1204 8.62353C10.5276 9.04619 11.0704 9.43782 11.687 9.46884C11.718 8.62353 11.4892 7.78209 11.0549 7.04146C12.0941 7.61535 13.2729 7.99148 14.4633 8.1427C14.3741 6.81656 13.5598 5.54858 12.3384 4.81184C12.7145 4.23795 12.8813 3.52835 12.7766 2.86528C12.067 3.55937 11.21 4.11775 10.2755 4.50939C10.3647 5.56409 10.1553 6.32023 10.1398 6.3939C10.0933 6.56064 9.90327 6.71962 9.67061 6.64982C9.47285 6.58778 9.35265 6.3939 9.41469 6.18063C9.4302 6.11859 9.59694 5.48654 9.51938 4.59857C9.44571 4.56755 7.46813 3.54386 6.54914 3.05916C6.62281 3.76876 7.00282 4.43183 7.56119 4.91266C7.04935 5.24613 6.35526 5.18409 5.73872 5.27327C5.12218 5.36246 4.41258 5.78512 4.53278 6.34349C5.37034 6.62268 6.32036 6.59166 7.10363 6.24268Z" fill="#A2ACBD"/>
<path d="M10.2833 4.49387C10.1786 3.2414 9.67837 1.57015 7.99161 0.0927843C7.84039 -0.042932 7.59998 -0.0274215 7.46426 0.123805C7.32854 0.275032 7.34405 0.515443 7.49528 0.65116C9.01918 1.9773 9.45347 3.48569 9.53102 4.58693C9.86062 4.75367 10.1437 4.51713 10.2833 4.49387Z" fill="#A2ACBD"/>
<path d="M14.9597 6.8941C15.2311 7.49513 15.2776 9.00352 15.2776 9.00352C15.2776 9.00352 13.0597 8.75148 12.3539 8.41413C12.5013 9.02291 12.4005 10.2366 12.4005 10.2366C10.198 10.4033 9.32164 8.75923 8.84081 8.32106C7.9606 8.98801 6.65384 9.67047 4.12177 10.3568L5.71934 7.28186H5.69995C5.02913 7.34391 3.98217 6.93676 3.98217 6.93676C2.24888 8.20474 1.14764 10.0427 1.14764 12.1095C1.14764 15.925 4.88566 19 9.50001 19C14.1144 19 17.8524 15.925 17.8524 12.1095C17.8524 10.0272 16.7356 8.1582 14.9597 6.8941Z" fill="#A2ACBD"/>
</g>
<defs>
<clipPath id="clip0_2_84">
<rect width="19" height="19" fill="white"/>
</clipPath>
</defs>
</svg>
